<svg xmlns="http://www.w3.org/2000/svg" width="36px" height="36px" viewBox="0 0 36 36">
  <defs>
    <style>
      .cls-1 {
        fill-rule: evenodd;
      }
    </style>
  </defs>
  <title>map</title>
  <g id="budicon-map"><path
    class="cls-1"
    d="M21.8865,2.6472,15.9,1.0508a1.5037,1.5037,0,0,0-.7988.0071L8.8983,2.83a1.5037,1.5037,0,0,1-.7988.0071l-5.2129-1.39A1.4973,1.4973,0,0,0,1,2.8965V21.9038A1.5,1.5,0,0,0,2.1131,23.353l5.9863,1.5962a1.5,1.5,0,0,0,.7988-.0068L15.1014,23.17a1.5037,1.5037,0,0,1,.7988-.0071l5.2129,1.39A1.4973,1.4973,0,0,0,23,23.1038V4.0964A1.5,1.5,0,0,0,21.8865,2.6472ZM8,23.8877l-5.6289-1.501A.5006.5006,0,0,1,2,21.9038V2.8965a.4866.4866,0,0,1,.1484-.3555.5028.5028,0,0,1,.3486-.1453.5126.5126,0,0,1,.1318.0176l5.2134,1.39c.0514.0137.1056.01.1577.0205Zm7-1.7036c-.0573.0122-.1169.0083-.1733.0244L9,23.8733V3.8162c.0573-.0122.1169-.0083.1733-.0244L15,2.127Zm7,.92a.5.5,0,0,1-.4971.5007.5126.5126,0,0,1-.1318-.0176l-5.2134-1.39c-.0514-.0137-.1056-.01-.1577-.0208V2.1123l5.6289,1.501A.5011.5011,0,0,1,22,4.0964Z"/></g>
</svg>
