<svg xmlns="http://www.w3.org/2000/svg" width="36px" height="36px" viewBox="0 0 36 36">
  <title>car-front</title>
  <g id="budicon-car-front">
    <path
      d="M15,17.5a.5.5,0,0,1-.5.5h-4a.5.5,0,0,1,0-1h4A.5.5,0,0,1,15,17.5ZM14.5,19h-4a.5.5,0,0,0,0,1h4a.5.5,0,0,0,0-1Zm7.5-.5A2.5,2.5,0,1,1,19.5,16,2.5,2.5,0,0,1,22,18.5Zm-1,0A1.5,1.5,0,1,0,19.5,20,1.5017,1.5017,0,0,0,21,18.5Zm-13,0A2.5,2.5,0,1,1,5.5,16,2.5,2.5,0,0,1,8,18.5Zm-1,0A1.5,1.5,0,1,0,5.5,20,1.5017,1.5017,0,0,0,7,18.5ZM24.5,13h-.8032A11.3789,11.3789,0,0,1,25,17v7a1,1,0,0,1-1,1H22a1,1,0,0,1-1-1V23H4v1a1,1,0,0,1-1,1H1a1,1,0,0,1-1-1V17A11.3786,11.3786,0,0,1,1.303,13H.5a.5.5,0,0,1-.5-.5v-2A.5.5,0,0,1,.5,10H2.67L4.7606,5.1211A3.4979,3.4979,0,0,1,7.9783,3h9.043a3.4979,3.4979,0,0,1,3.2178,2.1211L22.33,10H24.5a.5.5,0,0,1,.5.5v2A.5.5,0,0,1,24.5,13ZM3.3884,10.7993,3.972,12H4L5.414,13.4143A2,2,0,0,0,6.8282,14H18.1714a2,2,0,0,0,1.4142-.5857L21,12h.0278l.5891-1.2119c-.0245-.032-.06-.0522-.0768-.0908L19.3192,5.5156A2.4953,2.4953,0,0,0,17.0213,4H7.9783A2.4953,2.4953,0,0,0,5.68,5.5156L3.46,10.6973A.474.474,0,0,1,3.3884,10.7993ZM2,12h.86L2.374,11H1v1Zm20.5338,1h-1.12l-1.1213,1.1213A2.981,2.981,0,0,1,18.1714,15H6.8282a2.981,2.981,0,0,1-2.1212-.8784L3.5856,13h-1.12A10.7807,10.7807,0,0,0,1,17v7H3V23a1,1,0,0,1,1-1H21a1,1,0,0,1,1,1v1h2V17A10.7807,10.7807,0,0,0,22.5336,13ZM24,11H22.6256L22.14,12H24ZM10.5,6h4a.5.5,0,0,0,0-1h-4a.5.5,0,0,0,0,1Z"/>
  </g>
</svg>
