<svg xmlns="http://www.w3.org/2000/svg" width="36px" height="36px" viewBox="0 0 36 36">
  <title>cruise</title>
  <g id="budicon-cruise"><path
    d="M23.1011,17.0129l-2.1873-5.1038A1.5,1.5,0,0,0,19.5351,11H16.8575l-.888-1.332A1.5,1.5,0,0,0,14.7214,9H8.5242V6a1,1,0,0,0-1-1h-3.5a.5.5,0,1,0,0,1h1.5V9c0,.0308.0148.0564.0175.0864A1.4954,1.4954,0,0,0,4.5242,10.5V11H4.5132a1.5,1.5,0,0,0-1.3787.9092L.95,17.0063a.997.997,0,0,0-.8772,1.365L1.147,21.0571A1.5,1.5,0,0,0,2.54,22H21.4606a1.5,1.5,0,0,0,1.3927-.9429l1.0743-2.6858A.9951.9951,0,0,0,23.1011,17.0129ZM16.0242,12h3.5109a.5.5,0,0,1,.46.303L20.722,14H17.5242a1.5016,1.5016,0,0,1-1.5-1.5Zm-9.5-6h1V9h-1Zm-1,4.5a.5006.5006,0,0,1,.5-.5h8.6972a.4992.4992,0,0,1,.4161.2227L15.6556,11H5.5242ZM4.0536,12.3032A.4993.4993,0,0,1,4.5132,12H15.0242v.5a2.5026,2.5026,0,0,0,2.5,2.5h3.6263l.8571,2H2.0407Zm17.8712,8.3826A.4975.4975,0,0,1,21.4606,21H2.54a.4975.4975,0,0,1-.4642-.3142L1.0012,18H22.9991ZM5.5242,14.5a.5.5,0,1,1-.5-.5A.5.5,0,0,1,5.5242,14.5Zm3,0a.5.5,0,1,1-.5-.5A.5.5,0,0,1,8.5242,14.5Zm3,0a.5.5,0,1,1-.5-.5A.5.5,0,0,1,11.5242,14.5Z"/></g>
</svg>
