<svg xmlns="http://www.w3.org/2000/svg" width="36px" height="36px" viewBox="0 0 36 36">
  <title>train-front</title>
  <g id="budicon-train-front"><path
    d="M20.8746,16.17A30.7727,30.7727,0,0,0,21.5,11.5c0-.1277-.0062-.2693-.0132-.4126a.486.486,0,0,0-.0083-.231l-.0066-.0125A39.171,39.171,0,0,0,19.0135.8657,1.4877,1.4877,0,0,0,17.6523,0H7.3474A1.4877,1.4877,0,0,0,5.9861.8657a39.17,39.17,0,0,0-2.4582,9.9785l-.0066.0122a.486.486,0,0,0-.0083.231c-.007.1433-.0132.2849-.0132.4126a30.7727,30.7727,0,0,0,.6252,4.67,3.9881,3.9881,0,0,0,2.0684,2.79c.3521.1843.7514.3811,1.1711.5769L4.0906,24.2129a.5.5,0,1,0,.8184.5742L6.16,23H18.34l1.251,1.7871a.5.5,0,1,0,.8184-.5742l-3.1524-4.5034c.5639-.252,1.0928-.5112,1.55-.75A3.9881,3.9881,0,0,0,20.8746,16.17ZM6.8967,1.2791A.4908.4908,0,0,1,7.3474,1H17.6523a.4908.4908,0,0,1,.4507.2791,38.9821,38.9821,0,0,1,2.3489,9.3577A35.0772,35.0772,0,0,1,12.5,12a35.0772,35.0772,0,0,1-7.952-1.3633A38.9821,38.9821,0,0,1,6.8967,1.2791ZM17.64,22H6.86l1.4359-2.0513A11.7463,11.7463,0,0,0,12.5,21a11.0649,11.0649,0,0,0,3.8129-.8958ZM12.5,20a14.2578,14.2578,0,0,1-5.8431-1.927,2.9782,2.9782,0,0,1-1.55-2.0918,30.935,30.935,0,0,1-.6027-4.3181A34.8153,34.8153,0,0,0,12.5,13a34.8153,34.8153,0,0,0,7.9954-1.3369,30.9419,30.9419,0,0,1-.6026,4.3181,2.9791,2.9791,0,0,1-1.55,2.092A14.2589,14.2589,0,0,1,12.5,20Zm2-17h-4a.5.5,0,0,1,0-1h4a.5.5,0,0,1,0,1ZM17,14a2,2,0,1,0,2,2A2,2,0,0,0,17,14Zm0,3a1,1,0,1,1,1-1A1.0011,1.0011,0,0,1,17,17ZM8,14a2,2,0,1,0,2,2A2,2,0,0,0,8,14Zm0,3a1,1,0,1,1,1-1A1.0011,1.0011,0,0,1,8,17Z"/></g>
</svg>
