<svg xmlns="http://www.w3.org/2000/svg" width="36px" height="36px" viewBox="0 0 36 36">
  <title>bus-front</title>
  <g id="budicon-bus-front"><path
    d="M7.5,15a2,2,0,1,0,2,2A2,2,0,0,0,7.5,15Zm0,3a1,1,0,1,1,1-1A1.0011,1.0011,0,0,1,7.5,18Zm11,1a2,2,0,1,0-2-2A2,2,0,0,0,18.5,19Zm0-3a1,1,0,1,1-1,1A1.0011,1.0011,0,0,1,18.5,16ZM12,3h2a.5.5,0,0,1,0,1H12a.5.5,0,0,1,0-1Zm0,13h2a.5.5,0,0,1,0,1H12a.5.5,0,1,1,0-1Zm2.5,2.5a.5.5,0,0,1-.5.5H12a.5.5,0,1,1,0-1h2A.5.5,0,0,1,14.5,18.5Zm9.5-9H22.5V3c0-1-7.5-3-9.5-3S3.5,2,3.5,3V9.5H2a.5.5,0,0,0-.5.5v3a.5011.5011,0,0,0,.2764.4473L3.5,14.3091V19.5a1.4956,1.4956,0,0,0,1,1.4082V22a1,1,0,0,0,1,1h3a1,1,0,0,0,1-1V21h7v1a1,1,0,0,0,1,1h3a1,1,0,0,0,1-1V20.9082a1.4956,1.4956,0,0,0,1-1.4082V14.3091l1.7236-.8618A.5011.5011,0,0,0,24.5,13V10A.5.5,0,0,0,24,9.5ZM3.5,13.1912l-1-.5V10.5h1ZM8.5,22h-3V21h3Zm12,0h-3V21h3Zm1-2.5a.5007.5007,0,0,1-.5.5H5a.5007.5007,0,0,1-.5-.5V14.4209A61.1582,61.1582,0,0,1,13,13.5a61.1582,61.1582,0,0,1,8.5.9209Zm0-6.0947A60.302,60.302,0,0,0,13,12.5a60.302,60.302,0,0,0-8.5.9053V6h17ZM21.5,5H4.5V3.3264A28.7712,28.7712,0,0,1,13,1a28.7712,28.7712,0,0,1,8.5,2.3264Zm2,7.6914-1,.5V10.5h1Z"/>
  </g>
</svg>
